<?xml version="1.0" standalone="no"?>
<!DOCTYPE svg PUBLIC "-//W3C//DTD SVG 20010904//EN"
 "http://www.w3.org/TR/2001/REC-SVG-20010904/DTD/svg10.dtd">
<svg version="1.0" xmlns="http://www.w3.org/2000/svg"
 width="703.000000pt" height="703.000000pt" viewBox="0 0 703.000000 703.000000"
 preserveAspectRatio="xMidYMid meet">
<metadata>
Created by potrace 1.14, written by Peter Selinger 2001-2017
</metadata>
<g transform="translate(0.000000,703.000000) scale(0.100000,-0.100000)"
fill="#000000" stroke="none">
<path d="M3427 7024 c-1 -1 -64 -4 -140 -8 -76 -4 -143 -9 -150 -11 -7 -2 -34
-6 -62 -10 -264 -28 -593 -113 -860 -222 -349 -141 -678 -341 -971 -588 -60
-50 -317 -305 -365 -361 -128 -150 -272 -350 -372 -516 -64 -106 -227 -432
-227 -453 0 -4 -6 -21 -14 -38 -71 -163 -170 -512 -200 -707 -3 -19 -10 -66
-16 -105 -32 -211 -41 -470 -26 -724 4 -68 9 -132 11 -142 2 -10 6 -46 10 -81
3 -35 10 -81 15 -103 5 -22 11 -56 14 -75 9 -58 16 -94 22 -112 3 -10 7 -28
10 -40 26 -140 123 -442 184 -575 11 -24 20 -45 20 -49 0 -14 119 -248 176
-345 94 -162 184 -294 302 -440 106 -133 347 -384 451 -469 30 -25 59 -50 65
-55 25 -24 245 -184 301 -219 33 -21 71 -46 85 -55 77 -53 260 -148 455 -236
188 -85 515 -183 735 -221 52 -9 97 -17 100 -19 3 -2 39 -6 80 -10 41 -4 78
-9 81 -10 9 -6 273 -19 374 -19 99 1 367 14 375 19 3 2 30 6 60 9 104 12 135
16 180 26 25 5 59 12 75 14 46 7 206 47 280 70 6 1 30 8 55 15 25 6 54 16 65
20 11 5 78 30 148 55 455 167 868 436 1238 805 147 148 213 224 329 381 104
140 104 139 201 301 101 168 177 324 267 551 29 71 103 305 117 368 2 8 11 47
20 85 20 84 21 88 30 145 4 25 9 52 10 60 8 44 19 127 29 215 24 200 24 555 1
735 -2 19 -7 60 -10 90 -3 30 -8 62 -10 70 -2 8 -6 33 -10 55 -10 75 -17 110
-30 165 -8 30 -16 66 -18 80 -8 40 -56 207 -89 305 -88 263 -224 543 -387 795
-37 56 -161 231 -171 240 -3 3 -39 46 -79 95 -73 88 -301 321 -391 399 -25 22
-85 70 -135 108 -49 38 -97 75 -105 81 -19 15 -188 129 -211 142 -10 6 -55 32
-101 58 -315 184 -729 336 -1088 401 -127 23 -133 24 -196 31 -33 4 -70 8 -83
11 -53 8 -446 24 -454 18z"/>
</g>
</svg>
